<svg width="280" height="48" viewBox="0 0 280 48" xmlns="http://www.w3.org/2000/svg">
  <defs>
    <linearGradient id="gd1" x1="0%" y1="0%" x2="100%" y2="100%">
      <stop offset="0%" stop-color="#d4a853"/>
      <stop offset="50%" stop-color="#b8923e"/>
      <stop offset="100%" stop-color="#9a7a30"/>
    </linearGradient>
    <filter id="fw2" x="-80%" y="-80%" width="260%" height="260%">
      <feGaussianBlur in="SourceGraphic" stdDeviation="1.8"/>
    </filter>
  </defs>

  <!-- ========== quran ========== -->

  <!-- q — with elegant descender tail -->
  <path d="
    M 18.5 14 C 12 14, 7 19, 7 26 C 7 33, 12 38, 18.5 38
    C 22 38, 25 36.5, 26.5 34 L 26.5 44 C 26.5 44, 26.5 46, 28.5 46
    C 30.5 46, 30.5 44, 30.5 44 L 30.5 26
    C 30.5 19, 25 14, 18.5 14 Z
    M 18.5 18 C 22.8 18, 26.5 21.5, 26.5 26 C 26.5 30.5, 22.8 34, 18.5 34
    C 14.2 34, 11 30.5, 11 26 C 11 21.5, 14.2 18, 18.5 18 Z
  " fill="#0d2218" fill-rule="evenodd"/>

  <!-- Calligraphic tail flourish on q descender -->
  <path d="M 28.5 43 C 30 45.5, 33 47, 36 46 C 34 47.5, 30 47, 28.5 44" fill="#0d2218" opacity="0.6"/>

  <!-- u -->
  <path d="
    M 38 15 C 38 15, 38 13.5, 40 13.5 C 42 13.5, 42 15, 42 15
    L 42 29 C 42 32.5, 44.5 35, 48.5 35 C 52.5 35, 55 32.5, 55 29
    L 55 15 C 55 15, 55 13.5, 57 13.5 C 59 13.5, 59 15, 59 15
    L 59 29 C 59 35, 55 39, 48.5 39 C 42 39, 38 35, 38 29 Z
  " fill="#0d2218"/>

  <!-- r -->
  <path d="
    M 66 15 C 66 15, 66 13.5, 68 13.5 C 70 13.5, 70 15, 70 15
    L 70 22 C 71 18, 74 14, 78 14 C 79.5 14, 80 15, 80 16
    C 80 17, 79 17.5, 78 17.5 C 74 17.5, 70 21, 70 26
    L 70 37 C 70 37, 70 38.5, 68 38.5 C 66 38.5, 66 37, 66 37 Z
  " fill="#0d2218"/>

  <!-- a -->
  <path d="
    M 93 14 C 87 14, 83 18.5, 83 26 C 83 33.5, 87 38.5, 93 38.5
    C 96.5 38.5, 99 37, 100.5 34.5 L 100.5 37 C 100.5 37, 100.5 38.5, 102.5 38.5
    C 104.5 38.5, 104.5 37, 104.5 37 L 104.5 26
    C 104.5 18.5, 100 14, 93 14 Z
    M 93 18 C 97.5 18, 100.5 21.5, 100.5 26 C 100.5 30.5, 97.5 34, 93 34
    C 88.5 34, 87 30.5, 87 26 C 87 21.5, 88.5 18, 93 18 Z
  " fill="#0d2218" fill-rule="evenodd"/>

  <!-- n -->
  <path d="
    M 112 15 C 112 15, 112 13.5, 114 13.5 C 116 13.5, 116 15, 116 15
    L 116 19 C 118 16, 121 14, 125.5 14 C 131 14, 135 18, 135 25
    L 135 37 C 135 37, 135 38.5, 133 38.5 C 131 38.5, 131 37, 131 37
    L 131 25.5 C 131 20.5, 128.5 17.5, 124.5 17.5 C 120 17.5, 116 21, 116 26
    L 116 37 C 116 37, 116 38.5, 114 38.5 C 112 38.5, 112 37, 112 37 Z
  " fill="#0d2218"/>

  <!-- ========== .co.in — subtle ========== -->
  <g opacity="0.35">
    <!-- . (dot) -->
    <circle cx="143" cy="37" r="2" fill="#0d2218"/>

    <!-- c -->
    <path d="
      M 159 14 C 153 14, 149 19, 149 26 C 149 33, 153 38, 159 38
      C 162.5 38, 165 36, 166.5 33.5 C 167 32.5, 166.5 31.5, 165.5 31.5
      C 164.5 31.5, 164 32, 163.5 33 C 162.5 34.5, 161 35, 159 35
      C 155.5 35, 153 31, 153 26 C 153 21, 155.5 17, 159 17
      C 161 17, 162.5 18, 163.5 19.5 C 164 20.5, 164.5 21, 165.5 21
      C 166.5 21, 167 20, 166.5 19 C 165 16, 162.5 14, 159 14 Z
    " fill="#0d2218"/>

    <!-- o -->
    <path d="
      M 179 14 C 173 14, 169 19, 169 26 C 169 33, 173 38, 179 38
      C 185 38, 189 33, 189 26 C 189 19, 185 14, 179 14 Z
      M 179 17.5 C 183 17.5, 185.5 21, 185.5 26 C 185.5 31, 183 34.5, 179 34.5
      C 175 34.5, 172.5 31, 172.5 26 C 172.5 21, 175 17.5, 179 17.5 Z
    " fill="#0d2218" fill-rule="evenodd"/>

    <!-- . (dot) -->
    <circle cx="194" cy="37" r="2" fill="#0d2218"/>

    <!-- i (stem only) -->
    <path d="
      M 201 17 C 201 17, 201 15.5, 203 15.5 C 205 15.5, 205 17, 205 17
      L 205 37 C 205 37, 205 38.5, 203 38.5 C 201 38.5, 201 37, 201 37 Z
    " fill="#0d2218"/>

    <!-- n -->
    <path d="
      M 212 17 C 212 17, 212 15.5, 214 15.5 C 216 15.5, 216 17, 216 17
      L 216 20 C 217.5 17.5, 220 15, 224 15 C 229 15, 232.5 19, 232.5 25
      L 232.5 37 C 232.5 37, 232.5 38.5, 230.5 38.5 C 228.5 38.5, 228.5 37, 228.5 37
      L 228.5 25.5 C 228.5 21, 226.5 18.5, 223 18.5 C 219 18.5, 216 21.5, 216 26
      L 216 37 C 216 37, 216 38.5, 214 38.5 C 212 38.5, 212 37, 212 37 Z
    " fill="#0d2218"/>
  </g>

  <!-- ========== Gold accents ========== -->

  <!-- Gold crescent inside the q counter -->
  <g transform="translate(18.5, 26) rotate(-25)" opacity="0.7">
    <path d="M -1 -4.5 A 4.5 4.5 0 1 1 -1 4.5 A 3.2 3.2 0 1 0 -1 -4.5 Z" fill="url(#gd1)"/>
  </g>

  <!-- Gold tittle (dot) on the i — with glow -->
  <circle cx="203" cy="10" r="3.5" fill="url(#gd1)" filter="url(#fw2)" opacity="0.4"/>
  <circle cx="203" cy="10" r="2.3" fill="url(#gd1)"/>

  <!-- Subtle gold hairline under "quran" -->
  <line x1="7" y1="43.5" x2="135" y2="43.5" stroke="url(#gd1)" stroke-width="0.5" opacity="0.18" stroke-linecap="round"/>
</svg>