<svg width="320" height="56" viewBox="0 0 320 56" xmlns="http://www.w3.org/2000/svg">
  <defs>
    <linearGradient id="gold" x1="0%" y1="0%" x2="100%" y2="80%">
      <stop offset="0%" stop-color="#f5dfa0"/>
      <stop offset="40%" stop-color="#d4a853"/>
      <stop offset="100%" stop-color="#b8923e"/>
    </linearGradient>
    <linearGradient id="goldBright" x1="0%" y1="0%" x2="100%" y2="100%">
      <stop offset="0%" stop-color="#ffe9a0"/>
      <stop offset="50%" stop-color="#d4a853"/>
      <stop offset="100%" stop-color="#c49340"/>
    </linearGradient>
    <filter id="glow" x="-50%" y="-50%" width="200%" height="200%">
      <feGaussianBlur in="SourceGraphic" stdDeviation="2"/>
    </filter>
  </defs>

  <!-- Capital Q -->
  <path d="
    M 28 6 C 14 6, 3 16, 3 28 C 3 40, 14 50, 28 50
    C 34 50, 39 48, 43 44.5 L 48 50 C 48.5 50.5, 49 51, 50 51
    C 51.5 51, 52.5 50, 52.5 48.5 C 52.5 47.8, 52 47, 51.5 46.5
    L 47 41.5 C 50 37.5, 52 33, 52 28 C 52 16, 41 6, 28 6 Z
    M 28 12 C 37 12, 45 19, 45 28 C 45 32, 43.5 35.5, 41 38
    L 35.5 32 C 35 31.3, 34.5 31, 33.5 31 C 32 31, 31 32, 31 33.5
    C 31 34, 31.2 34.5, 31.5 35 L 36.5 41 C 34 43, 31 44, 28 44
    C 18 44, 10 37, 10 28 C 10 19, 18 12, 28 12 Z
  " fill="url(#gold)" fill-rule="evenodd"/>

  <!-- u -->
  <path d="
    M 62 18 L 62 36 C 62 41, 66 45, 72 45 C 78 45, 82 41, 82 36 L 82 18
    C 82 16.5, 83 15.5, 84.5 15.5 C 86 15.5, 87 16.5, 87 18 L 87 36
    C 87 44, 81 49, 72 49 C 63 49, 57 44, 57 36 L 57 18
    C 57 16.5, 58 15.5, 59.5 15.5 C 61 15.5, 62 16.5, 62 18 Z
  " fill="url(#gold)"/>

  <!-- r -->
  <path d="
    M 96 18 C 96 16.5, 97 15.5, 98.5 15.5 C 100 15.5, 101 16.5, 101 18
    L 101 26 C 102.5 20, 107 16, 112 16 C 113.5 16, 114.5 17, 114.5 18.5
    C 114.5 20, 113.5 21, 112 21 C 107 21, 101 25, 101 32 L 101 46
    C 101 47.5, 100 48.5, 98.5 48.5 C 97 48.5, 96 47.5, 96 46 Z
  " fill="url(#gold)"/>

  <!-- a -->
  <path d="
    M 128 16 C 121 16, 116 22, 116 32 C 116 42, 121 48, 128 48
    C 132 48, 135.5 46, 137.5 42.5 L 137.5 46 C 137.5 47.5, 138.5 48.5, 140 48.5
    C 141.5 48.5, 142.5 47.5, 142.5 46 L 142.5 32
    C 142.5 22, 137.5 16, 128 16 Z
    M 128 21 C 134 21, 137.5 25.5, 137.5 32 C 137.5 38.5, 134 43, 128 43
    C 123 43, 121 38.5, 121 32 C 121 25.5, 123 21, 128 21 Z
  " fill="url(#gold)" fill-rule="evenodd"/>

  <!-- n -->
  <path d="
    M 152 18 C 152 16.5, 153 15.5, 154.5 15.5 C 156 15.5, 157 16.5, 157 18
    L 157 23 C 159 19, 163 16, 168.5 16 C 175 16, 180 21, 180 30
    L 180 46 C 180 47.5, 179 48.5, 177.5 48.5 C 176 48.5, 175 47.5, 175 46
    L 175 30.5 C 175 24.5, 172 21, 167.5 21 C 162 21, 157 25, 157 32
    L 157 46 C 157 47.5, 156 48.5, 154.5 48.5 C 153 48.5, 152 47.5, 152 46 Z
  " fill="url(#gold)"/>

  <!-- .co.in -->
  <g opacity="0.45">
    <circle cx="189" cy="46" r="2.5" fill="url(#gold)"/>
    <path d="M 206 16 C 199 16, 195 22, 195 32 C 195 42, 199 48, 206 48 C 210 48, 213 46, 214.5 43 C 215 42, 214.5 41, 213.5 41 C 212.5 41, 212 41.5, 211.5 42.5 C 210.5 44.5, 208.5 46, 206 46 C 202 46, 199.5 41, 199.5 32 C 199.5 23, 202 18, 206 18 C 208.5 18, 210.5 19.5, 211.5 21.5 C 212 22.5, 212.5 23, 213.5 23 C 214.5 23, 215 22, 214.5 21 C 213 18, 210 16, 206 16 Z" fill="url(#gold)"/>
    <path d="M 228 16 C 221 16, 217 22, 217 32 C 217 42, 221 48, 228 48 C 235 48, 239 42, 239 32 C 239 22, 235 16, 228 16 Z M 228 20.5 C 233 20.5, 235 25, 235 32 C 235 39, 233 43.5, 228 43.5 C 223 43.5, 221 39, 221 32 C 221 25, 223 20.5, 228 20.5 Z" fill="url(#gold)" fill-rule="evenodd"/>
    <circle cx="245" cy="46" r="2.5" fill="url(#gold)"/>
    <path d="M 254 22 C 254 20.5, 255 19.5, 256.5 19.5 C 258 19.5, 259 20.5, 259 22 L 259 46 C 259 47.5, 258 48.5, 256.5 48.5 C 255 48.5, 254 47.5, 254 46 Z" fill="url(#gold)"/>
    <path d="M 267 22 C 267 20.5, 268 19.5, 269.5 19.5 C 271 19.5, 272 20.5, 272 22 L 272 25.5 C 273.5 22, 277 19, 281.5 19 C 287 19, 291 23.5, 291 31 L 291 46 C 291 47.5, 290 48.5, 288.5 48.5 C 287 48.5, 286 47.5, 286 46 L 286 31.5 C 286 26, 284 23, 280.5 23 C 276 23, 272 26.5, 272 32 L 272 46 C 272 47.5, 271 48.5, 269.5 48.5 C 268 48.5, 267 47.5, 267 46 Z" fill="url(#gold)"/>
  </g>

  <!-- Glowing i dot -->
  <circle cx="256.5" cy="13" r="4" fill="url(#goldBright)" filter="url(#glow)" opacity="0.5"/>
  <circle cx="256.5" cy="13" r="2.8" fill="url(#goldBright)"/>

  <!-- Decorative star -->
  <g transform="translate(54.5, 32)" opacity="0.3">
    <path d="M 0 -3 L 0.8 -0.8 L 3 0 L 0.8 0.8 L 0 3 L -0.8 0.8 L -3 0 L -0.8 -0.8 Z" fill="url(#goldBright)"/>
  </g>

  <!-- Underline flourish -->
  <path d="M 5 52.5 Q 95 55, 185 52.5" stroke="url(#gold)" stroke-width="0.7" fill="none" opacity="0.25" stroke-linecap="round"/>
</svg>
